####
#
# OBJ File Generated by Meshlab
#
####
# Object Indy7_3.obj
#
# Vertices: 139
# Faces: 274
#
####
vn 0.050072 6.161440 -0.006592
v 0.000000 0.049919 -0.030469
vn 0.000000 3.081228 2.748893
v 0.000000 0.049919 -0.002000
vn 1.179135 2.846684 2.748894
v 0.019103 0.046119 -0.002000
vn 2.391062 5.653692 -0.159553
v 0.019103 0.046119 -0.030469
vn 2.178757 2.178757 2.748894
v 0.035298 0.035298 -0.002000
vn 4.347170 4.298761 -0.285477
v 0.035298 0.035298 -0.030469
vn 2.846684 1.179135 2.748893
v 0.046119 0.019103 -0.002000
vn 5.637709 2.315409 -0.367445
v 0.046119 0.019103 -0.030469
vn 3.081228 0.000000 2.748893
v 0.049919 -0.000000 -0.002000
vn 6.087542 0.000000 -0.395788
v 0.049919 -0.000000 -0.030469
vn 2.846683 -1.179135 2.748893
v 0.046119 -0.019103 -0.002000
vn 5.637709 -2.315408 -0.367445
v 0.046119 -0.019103 -0.030469
vn 2.178757 -2.178757 2.748893
v 0.035298 -0.035298 -0.002000
vn 4.347170 -4.298761 -0.285477
v 0.035298 -0.035298 -0.030469
vn 1.179135 -2.846683 2.748893
v 0.019103 -0.046119 -0.002000
vn 2.391062 -5.653692 -0.159553
v 0.019103 -0.046119 -0.030469
vn -0.000000 -3.081228 2.748893
v -0.000000 -0.049919 -0.002000
vn 0.050071 -6.161440 -0.006592
v -0.000000 -0.049919 -0.030469
vn -1.179135 -2.846683 2.748894
v -0.019103 -0.046119 -0.002000
vn -2.320626 -5.725066 0.150280
v -0.019103 -0.046119 -0.030469
vn -2.178757 -2.178757 2.748893
v -0.035298 -0.035298 -0.002000
vn -4.347695 -4.398943 0.285544
v -0.035298 -0.035298 -0.030469
vn -2.846683 -1.179135 2.748893
v -0.046119 -0.019103 -0.002000
vn -5.708144 -2.385722 0.376724
v -0.046119 -0.019103 -0.030469
vn -3.081228 0.000000 2.748893
v -0.049919 0.000000 -0.002000
vn -6.164361 -0.009740 0.006523
v -0.049919 0.000000 -0.030469
vn -2.846683 1.179135 2.748894
v -0.046119 0.019103 -0.002000
vn -5.708145 2.385720 0.376714
v -0.046119 0.019103 -0.030469
vn -2.178757 2.178757 2.748893
v -0.035298 0.035298 -0.002000
vn -4.347697 4.398944 0.285549
v -0.035298 0.035298 -0.030469
vn -1.179135 2.846684 2.748893
v -0.019103 0.046119 -0.002000
vn -2.320626 5.725066 0.150280
v -0.019103 0.046119 -0.030469
vn 4.189053 -4.240008 -1.122453
v 0.032394 -0.035298 -0.052525
vn 5.391847 -2.272547 -1.444740
v 0.042847 -0.019103 -0.055326
vn -3.459984 -0.010387 3.458300
v -0.049919 0.000000 -0.030469
vn -5.527919 2.413173 1.481200
v -0.046249 0.019103 -0.031453
vn -4.956198 2.413171 2.861457
v -0.046628 0.019103 -0.032369
vn -5.527916 -2.413172 1.481204
v -0.046249 -0.019103 -0.031453
vn -4.190070 -4.440375 1.122725
v -0.035796 -0.035298 -0.034253
vn 0.096731 6.160424 -0.025919
v -0.001701 0.049919 -0.043389
vn -2.205191 5.756766 0.590879
v -0.020153 0.046119 -0.038445
vn 5.807752 -0.000000 -1.556181
v 0.046517 -0.000000 -0.056309
vn 5.391848 2.272547 -1.444740
v 0.042847 0.019103 -0.055326
vn -2.205192 -5.756765 0.590879
v -0.020153 -0.046119 -0.038445
vn 0.096730 -6.160424 -0.025919
v -0.001701 -0.049919 -0.043389
vn -4.190071 4.440373 1.122728
v -0.035796 0.035298 -0.034253
vn 4.189053 4.240009 -1.122453
v 0.032394 0.035298 -0.052525
vn 2.341263 5.614018 -0.627339
v 0.016751 0.046119 -0.048334
vn 2.341263 -5.614017 -0.627339
v 0.016751 -0.046119 -0.048334
vn -3.756715 -4.440375 2.168941
v -0.037257 -0.035298 -0.037780
vn -4.956192 -2.413174 2.861466
v -0.046628 -0.019103 -0.032369
vn -4.046711 -2.413172 4.046722
v -0.047232 -0.019103 -0.033156
vn -3.067344 -4.440375 3.067344
v -0.039581 -0.035298 -0.040808
vn 3.755802 -4.240008 -2.168412
v 0.023881 -0.035298 -0.073078
vn 4.834198 -2.272547 -2.791024
v 0.033253 -0.019103 -0.078489
vn -3.756716 4.440374 2.168939
v -0.037257 0.035298 -0.037780
vn 2.099119 -5.614017 -1.211927
v 0.009856 -0.046119 -0.064980
vn -1.977120 5.756765 1.141490
v -0.023232 0.046119 -0.045877
vn 0.086726 -6.160424 -0.050071
v -0.006688 -0.049919 -0.055429
vn 2.099119 5.614017 -1.211927
v 0.009856 0.046119 -0.064980
vn 0.086726 6.160423 -0.050071
v -0.006688 0.049919 -0.055429
vn -1.977121 -5.756765 1.141491
v -0.023232 -0.046119 -0.045877
vn 3.755802 4.240009 -2.168413
v 0.023881 0.035298 -0.073078
vn 4.834198 2.272547 -2.791024
v 0.033253 0.019103 -0.078489
vn 5.207089 0.000000 -3.006313
v 0.036543 -0.000000 -0.080388
vn 0.070812 6.160423 -0.070812
v -0.014621 0.049919 -0.065767
vn 1.713923 5.614017 -1.713923
v -0.001113 0.046119 -0.079276
vn 1.211927 5.614018 -2.099118
v -0.015408 0.046119 -0.090244
vn 0.050072 6.160424 -0.086726
v -0.024960 0.049919 -0.073701
vn 4.251572 -0.000000 -4.251570
v 0.020677 -0.000000 -0.101066
vn 3.947106 2.272547 -3.947105
v 0.017990 0.019103 -0.098379
vn 3.947106 -2.272547 -3.947106
v 0.017990 -0.019103 -0.098379
vn -4.046721 2.413173 4.046712
v -0.047232 0.019103 -0.033156
vn 3.066599 -4.240009 -3.066599
v 0.010339 -0.035298 -0.090727
vn -3.067347 4.440373 3.067344
v -0.039581 0.035298 -0.040808
vn 1.713923 -5.614017 -1.713923
v -0.001113 -0.046119 -0.079276
vn -1.614311 5.756766 1.614312
v -0.028129 0.046119 -0.052259
vn 0.070811 -6.160424 -0.070811
v -0.014621 -0.049919 -0.065767
vn -1.614311 -5.756765 1.614312
v -0.028129 -0.046119 -0.052259
vn 3.066599 4.240009 -3.066599
v 0.010339 0.035298 -0.090727
vn 2.791026 -2.272548 -4.834197
v -0.001900 -0.019103 -0.113641
vn 2.168413 -4.240010 -3.755800
v -0.007310 -0.035298 -0.104270
vn 1.122454 -4.240011 -4.189050
v -0.027863 -0.035298 -0.112783
vn 1.444741 -2.272547 -5.391846
v -0.025063 -0.019103 -0.123235
vn -1.141491 5.756765 1.977120
v -0.034511 0.046119 -0.057157
vn -1.141492 -5.756765 1.977121
v -0.034511 -0.046119 -0.057157
vn 0.050071 -6.160423 -0.086726
v -0.024960 -0.049919 -0.073701
vn 2.168413 4.240010 -3.755801
v -0.007310 0.035298 -0.104270
vn -2.168939 -4.440375 3.756716
v -0.042609 -0.035298 -0.043131
vn 2.791025 2.272548 -4.834197
v -0.001900 0.019103 -0.113641
vn -2.861466 -2.413173 4.956192
v -0.048019 -0.019103 -0.033760
vn 3.006315 -0.000000 -5.207088
v 0.000000 -0.000000 -0.116932
vn -2.861454 2.413173 4.956199
v -0.048019 0.019103 -0.033760
vn -2.168942 4.440373 3.756715
v -0.042609 0.035298 -0.043131
vn 1.211926 -5.614017 -2.099119
v -0.015408 -0.046119 -0.090244
vn -1.122723 -4.440376 4.190072
v -0.046135 -0.035298 -0.044592
vn -1.481202 -2.413174 5.527917
v -0.048936 -0.019103 -0.034140
vn -0.376994 -2.389374 5.706592
v -0.049919 -0.019103 -0.034269
vn -0.304015 -4.402456 4.340857
v -0.049919 -0.035298 -0.045090
vn -1.122729 4.440374 4.190072
v -0.046135 0.035298 -0.044592
vn -1.481200 2.413171 5.527918
v -0.048936 0.019103 -0.034140
vn 0.627340 -5.614018 -2.341262
v -0.032055 -0.046119 -0.097140
vn -0.590879 5.756767 2.205191
v -0.041943 0.046119 -0.060235
vn 0.025919 -6.160423 -0.096731
v -0.036999 -0.049919 -0.078688
vn 0.627339 5.614018 -2.341262
v -0.032055 0.046119 -0.097140
vn 0.025919 6.160425 -0.096731
v -0.036999 0.049919 -0.078688
vn -0.590879 -5.756766 2.205191
v -0.041943 -0.046119 -0.060235
vn 1.122454 4.240010 -4.189051
v -0.027863 0.035298 -0.112783
vn 1.444741 2.272548 -5.391845
v -0.025063 0.019103 -0.123235
vn 1.556183 -0.000000 -5.807753
v -0.024079 -0.000000 -0.126906
vn -0.070823 6.150847 -0.060355
v -0.049919 0.049919 -0.080388
vn 0.050502 5.635773 -2.393885
v -0.049919 0.046119 -0.099492
vn -2.858429 2.861173 -1.174664
v -0.266000 0.041104 -0.091557
vn -2.826230 3.089864 0.010444
v -0.266000 0.044491 -0.074531
vn 0.236119 -0.000000 -6.063574
v -0.049919 -0.000000 -0.130308
vn 0.213988 2.303052 -5.618063
v -0.049919 0.019103 -0.126508
vn 0.213988 -2.303051 -5.618062
v -0.049919 -0.019103 -0.126508
vn -0.377006 2.389375 5.706592
v -0.049919 0.019103 -0.034269
vn 0.149759 -4.279623 -4.338243
v -0.049919 -0.035298 -0.115687
vn -0.304019 4.402455 4.340856
v -0.049919 0.035298 -0.045090
vn 0.050503 -5.635772 -2.393884
v -0.049919 -0.046119 -0.099492
vn -0.195870 5.723167 2.309518
v -0.049919 0.046119 -0.061285
vn -0.070822 -6.150847 -0.060356
v -0.049919 -0.049919 -0.080388
vn -0.195870 -5.723167 2.309518
v -0.049919 -0.046119 -0.061285
vn 0.149759 4.279624 -4.338243
v -0.049919 0.035298 -0.115687
vn -2.794169 2.847885 1.190048
v -0.266000 0.041104 -0.057505
vn -2.885831 2.193914 -2.183415
v -0.266000 0.031460 -0.105991
vn -2.904187 1.188753 -2.859391
v -0.266000 0.017026 -0.115636
vn -2.910645 -0.000000 -3.097126
v -0.266000 -0.000000 -0.119023
vn -2.904188 -1.188753 -2.859388
v -0.266000 -0.017026 -0.115636
vn -2.885831 -2.193914 -2.183415
v -0.266000 -0.031460 -0.105991
vn -2.858429 -2.861171 -1.174664
v -0.266000 -0.041104 -0.091557
vn -2.826230 -3.089837 0.010444
v -0.266000 -0.044491 -0.074531
vn -2.794171 -2.847885 1.190048
v -0.266000 -0.041104 -0.057505
vn -2.767111 -2.175122 2.185511
v -0.266000 -0.031460 -0.043071
vn -2.749093 -1.175476 2.848223
v -0.266000 -0.017026 -0.033427
vn -2.742777 0.000001 3.080462
v -0.266000 0.000000 -0.030040
vn -2.749093 1.175476 2.848223
v -0.266000 0.017026 -0.033427
vn -2.767111 2.175121 2.185512
v -0.266000 0.031460 -0.043071
# 139 vertices, 0 vertices normals

f 1//1 2//2 3//3
f 1//1 3//3 4//4
f 4//4 3//3 5//5
f 4//4 5//5 6//6
f 6//6 5//5 7//7
f 6//6 7//7 8//8
f 8//8 7//7 9//9
f 8//8 9//9 10//10
f 10//10 9//9 11//11
f 10//10 11//11 12//12
f 12//12 11//11 13//13
f 12//12 13//13 14//14
f 14//14 13//13 15//15
f 14//14 15//15 16//16
f 16//16 15//15 17//17
f 16//16 17//17 18//18
f 18//18 17//17 19//19
f 18//18 19//19 20//20
f 20//20 19//19 21//21
f 20//20 21//21 22//22
f 22//22 21//21 23//23
f 22//22 23//23 24//24
f 24//24 23//23 25//25
f 24//24 25//25 26//26
f 26//26 25//25 27//27
f 26//26 27//27 28//28
f 28//28 27//27 29//29
f 28//28 29//29 30//30
f 5//5 3//3 2//2
f 2//2 31//31 29//29
f 29//29 27//27 25//25
f 25//25 23//23 21//21
f 21//21 19//19 17//17
f 17//17 15//15 13//13
f 13//13 11//11 9//9
f 9//9 7//7 5//5
f 5//5 2//2 29//29
f 29//29 25//25 21//21
f 21//21 17//17 13//13
f 13//13 9//9 5//5
f 5//5 29//29 21//21
f 21//21 13//13 5//5
f 30//30 29//29 31//31
f 30//30 31//31 32//32
f 32//32 31//31 2//2
f 32//32 2//2 1//1
f 12//12 14//14 33//33
f 12//12 33//33 34//34
f 35//35 36//36 37//37
f 22//22 24//24 38//38
f 22//22 38//38 39//39
f 32//32 1//1 40//40
f 32//32 40//40 41//41
f 8//8 10//10 42//42
f 8//8 42//42 43//43
f 18//18 20//20 44//44
f 18//18 44//44 45//45
f 28//28 30//30 46//46
f 28//28 46//46 36//36
f 4//4 6//6 47//47
f 4//4 47//47 48//48
f 14//14 16//16 49//49
f 14//14 49//49 33//33
f 24//24 26//26 35//35
f 24//24 35//35 38//38
f 10//10 12//12 34//34
f 10//10 34//34 42//42
f 20//20 22//22 39//39
f 20//20 39//39 44//44
f 30//30 32//32 41//41
f 30//30 41//41 46//46
f 6//6 8//8 43//43
f 6//6 43//43 47//47
f 16//16 18//18 45//45
f 16//16 45//45 49//49
f 1//1 4//4 48//48
f 1//1 48//48 40//40
f 26//26 28//28 36//36
f 26//26 36//36 35//35
f 50//50 51//51 52//52
f 50//50 52//52 53//53
f 34//34 33//33 54//54
f 34//34 54//54 55//55
f 36//36 46//46 56//56
f 36//36 56//56 37//37
f 33//33 49//49 57//57
f 33//33 57//57 54//54
f 46//46 41//41 58//58
f 46//46 58//58 56//56
f 49//49 45//45 59//59
f 49//49 59//59 57//57
f 40//40 48//48 60//60
f 40//40 60//60 61//61
f 41//41 40//40 61//61
f 41//41 61//61 58//58
f 45//45 44//44 62//62
f 45//45 62//62 59//59
f 48//48 47//47 63//63
f 48//48 63//63 60//60
f 44//44 39//39 50//50
f 44//44 50//50 62//62
f 47//47 43//43 64//64
f 47//47 64//64 63//63
f 39//39 38//38 51//51
f 39//39 51//51 50//50
f 43//43 42//42 65//65
f 43//43 65//65 64//64
f 38//38 35//35 51//51
f 42//42 34//34 55//55
f 42//42 55//55 65//65
f 66//66 67//67 68//68
f 66//66 68//68 69//69
f 64//64 65//65 70//70
f 64//64 70//70 71//71
f 51//51 35//35 52//52
f 65//65 55//55 72//72
f 65//65 72//72 70//70
f 35//35 37//37 73//73
f 55//55 54//54 74//74
f 55//55 74//74 72//72
f 37//37 56//56 75//75
f 37//37 75//75 73//73
f 54//54 57//57 76//76
f 54//54 76//76 74//74
f 56//56 58//58 77//77
f 56//56 77//77 75//75
f 57//57 59//59 78//78
f 57//57 78//78 76//76
f 61//61 60//60 67//67
f 61//61 67//67 66//66
f 58//58 61//61 66//66
f 58//58 66//66 77//77
f 59//59 62//62 79//79
f 59//59 79//79 78//78
f 60//60 63//63 80//80
f 60//60 80//80 67//67
f 62//62 50//50 53//53
f 62//62 53//53 79//79
f 63//63 64//64 71//71
f 63//63 71//71 80//80
f 81//81 82//82 83//83
f 81//81 83//83 84//84
f 77//77 66//66 69//69
f 77//77 69//69 85//85
f 78//78 79//79 86//86
f 78//78 86//86 87//87
f 67//67 80//80 88//88
f 67//67 88//88 68//68
f 79//79 53//53 89//89
f 79//79 89//89 86//86
f 80//80 71//71 90//90
f 80//80 90//90 88//88
f 53//53 52//52 91//91
f 53//53 91//91 89//89
f 71//71 70//70 92//92
f 71//71 92//92 90//90
f 52//52 35//35 91//91
f 70//70 72//72 81//81
f 70//70 81//81 92//92
f 35//35 73//73 93//93
f 72//72 74//74 82//82
f 72//72 82//82 81//81
f 73//73 75//75 94//94
f 73//73 94//94 93//93
f 74//74 76//76 95//95
f 74//74 95//95 82//82
f 75//75 77//77 85//85
f 75//75 85//85 94//94
f 76//76 78//78 87//87
f 76//76 87//87 95//95
f 96//96 97//97 98//98
f 96//96 98//98 99//99
f 93//93 94//94 100//100
f 93//93 100//100 101//101
f 82//82 95//95 102//102
f 82//82 102//102 83//83
f 94//94 85//85 103//103
f 94//94 103//103 100//100
f 95//95 87//87 104//104
f 95//95 104//104 102//102
f 69//69 68//68 105//105
f 69//69 105//105 106//106
f 85//85 69//69 106//106
f 85//85 106//106 103//103
f 87//87 86//86 107//107
f 87//87 107//107 104//104
f 68//68 88//88 108//108
f 68//68 108//108 105//105
f 86//86 89//89 96//96
f 86//86 96//96 107//107
f 88//88 90//90 109//109
f 88//88 109//109 108//108
f 89//89 91//91 97//97
f 89//89 97//97 96//96
f 90//90 92//92 110//110
f 90//90 110//110 109//109
f 91//91 35//35 97//97
f 92//92 81//81 84//84
f 92//92 84//84 110//110
f 35//35 93//93 101//101
f 111//111 112//112 113//113
f 111//111 113//113 114//114
f 109//109 110//110 115//115
f 109//109 115//115 116//116
f 97//97 35//35 98//98
f 110//110 84//84 117//117
f 110//110 117//117 115//115
f 35//35 101//101 118//118
f 84//84 83//83 119//119
f 84//84 119//119 117//117
f 101//101 100//100 120//120
f 101//101 120//120 118//118
f 83//83 102//102 121//121
f 83//83 121//121 119//119
f 100//100 103//103 122//122
f 100//100 122//122 120//120
f 102//102 104//104 123//123
f 102//102 123//123 121//121
f 106//106 105//105 112//112
f 106//106 112//112 111//111
f 103//103 106//106 111//111
f 103//103 111//111 122//122
f 104//104 107//107 124//124
f 104//104 124//124 123//123
f 105//105 108//108 125//125
f 105//105 125//125 112//112
f 107//107 96//96 99//99
f 107//107 99//99 124//124
f 108//108 109//109 116//116
f 108//108 116//116 125//125
f 126//126 114//114 113//113
f 113//113 127//127 128//128
f 128//128 129//129 130//130
f 130//130 131//131 132//132
f 132//132 133//133 134//134
f 134//134 135//135 136//136
f 136//136 137//137 138//138
f 138//138 139//139 126//126
f 126//126 113//113 128//128
f 128//128 130//130 132//132
f 132//132 134//134 136//136
f 136//136 138//138 126//126
f 126//126 128//128 132//132
f 132//132 136//136 126//126
f 122//122 111//111 114//114
f 122//122 114//114 126//126
f 123//123 124//124 134//134
f 123//123 134//134 133//133
f 112//112 125//125 127//127
f 112//112 127//127 113//113
f 124//124 99//99 135//135
f 124//124 135//135 134//134
f 125//125 116//116 128//128
f 125//125 128//128 127//127
f 99//99 98//98 136//136
f 99//99 136//136 135//135
f 116//116 115//115 129//129
f 116//116 129//129 128//128
f 98//98 35//35 137//137
f 98//98 137//137 136//136
f 115//115 117//117 130//130
f 115//115 130//130 129//129
f 35//35 118//118 138//138
f 35//35 138//138 137//137
f 117//117 119//119 131//131
f 117//117 131//131 130//130
f 118//118 120//120 139//139
f 118//118 139//139 138//138
f 119//119 121//121 132//132
f 119//119 132//132 131//131
f 120//120 122//122 126//126
f 120//120 126//126 139//139
f 121//121 123//123 133//133
f 121//121 133//133 132//132
# 274 faces, 0 coords texture

# End of File
