####
#
# OBJ File Generated by Meshlab
#
####
# Object Indy7_6.obj
#
# Vertices: 112
# Faces: 220
#
####
vn -0.000000 3.081228 -2.748893
v 0.000000 0.044928 0.000925
vn -0.000000 5.238840 1.867339
v 0.000000 0.044928 0.053000
vn 2.004816 4.840055 1.867340
v 0.017193 0.041508 0.053000
vn 1.179135 2.846684 -2.748893
v 0.017193 0.041508 0.000925
vn 3.704420 3.704421 1.867338
v 0.031769 0.031769 0.053000
vn 2.178757 2.178757 -2.748894
v 0.031769 0.031769 0.000925
vn 4.840053 2.004815 1.867340
v 0.041508 0.017193 0.053000
vn 2.846683 1.179135 -2.748893
v 0.041508 0.017193 0.000925
vn 5.238840 0.000000 1.867339
v 0.044928 -0.000000 0.053000
vn 3.081228 -0.000000 -2.748893
v 0.044928 -0.000000 0.000925
vn 4.840061 -2.004818 1.867335
v 0.041508 -0.017193 0.053000
vn 2.846683 -1.179135 -2.748893
v 0.041508 -0.017193 0.000925
vn 3.704419 -3.704419 1.867335
v 0.031769 -0.031769 0.053000
vn 2.178757 -2.178757 -2.748894
v 0.031769 -0.031769 0.000925
vn 2.004816 -4.840055 1.867341
v 0.017193 -0.041508 0.053000
vn 1.179135 -2.846683 -2.748893
v 0.017193 -0.041508 0.000925
vn -0.000000 -5.238838 1.867337
v -0.000000 -0.044928 0.053000
vn -0.000000 -3.081228 -2.748893
v -0.000000 -0.044928 0.000925
vn -2.004816 -4.840055 1.867341
v -0.017193 -0.041508 0.053000
vn -1.179135 -2.846683 -2.748894
v -0.017193 -0.041508 0.000925
vn -3.704422 -3.704424 1.867331
v -0.031769 -0.031769 0.053000
vn -2.178757 -2.178757 -2.748894
v -0.031769 -0.031769 0.000925
vn -4.840053 -2.004816 1.867343
v -0.041508 -0.017193 0.053000
vn -2.846683 -1.179135 -2.748894
v -0.041508 -0.017193 0.000925
vn -5.238838 0.000001 1.867337
v -0.044928 0.000000 0.053000
vn -3.081228 0.000000 -2.748893
v -0.044928 0.000000 0.000925
vn -4.840059 2.004818 1.867337
v -0.041508 0.017193 0.053000
vn -2.846684 1.179135 -2.748894
v -0.041508 0.017193 0.000925
vn -3.704425 3.704422 1.867333
v -0.031769 0.031769 0.053000
vn -2.178757 2.178757 -2.748893
v -0.031769 0.031769 0.000925
vn 5.193803 -2.151345 2.198712
v 0.041060 -0.017008 0.053561
vn 3.975169 -3.975168 2.198717
v 0.031426 -0.031426 0.053561
vn -2.004818 4.840059 1.867333
v -0.017193 0.041508 0.053000
vn -1.179135 2.846683 -2.748894
v -0.017193 0.041508 0.000925
vn -5.193801 -2.151344 2.198724
v -0.041060 -0.017008 0.053561
vn -3.975170 -3.975170 2.198711
v -0.031426 -0.031426 0.053561
vn -3.871045 -3.871045 -2.394016
v -0.031426 -0.031426 0.053943
vn -5.057754 -2.094991 -2.394025
v -0.041060 -0.017008 0.053943
vn -2.151347 5.193809 2.198713
v -0.017008 0.041060 0.053561
vn 0.000001 5.621729 2.198719
v 0.000000 0.044443 0.053561
vn 5.193804 2.151346 2.198723
v 0.041060 0.017008 0.053561
vn 5.621728 -0.000000 2.198718
v 0.044443 -0.000000 0.053561
vn -0.000000 -5.621733 2.198720
v -0.000000 -0.044443 0.053561
vn -2.151344 -5.193799 2.198721
v -0.017008 -0.041060 0.053561
vn -5.193806 2.151344 2.198715
v -0.041060 0.017008 0.053561
vn -3.975163 3.975165 2.198709
v -0.031426 0.031426 0.053561
vn 2.151345 5.193799 2.198723
v 0.017008 0.041060 0.053561
vn 3.975168 3.975168 2.198719
v 0.031426 0.031426 0.053561
vn 2.151344 -5.193799 2.198721
v 0.017008 -0.041060 0.053561
vn -5.621734 0.000001 2.198720
v -0.044443 0.000000 0.053561
vn 0.000001 5.474474 -2.394017
v 0.000000 0.044443 0.053943
vn -2.094990 5.057751 -2.394022
v -0.017008 0.041060 0.053943
vn -1.946656 4.699646 -2.006282
v -0.017221 0.041575 0.054500
vn 0.000000 5.086862 -2.006278
v 0.000000 0.045000 0.054500
vn 5.057752 2.094991 -2.394024
v 0.041060 0.017008 0.053943
vn 5.474475 0.000001 -2.394018
v 0.044443 -0.000000 0.053943
vn -5.474478 0.000000 -2.394018
v -0.044443 0.000000 0.053943
vn 5.057756 -2.094993 -2.394021
v 0.041060 -0.017008 0.053943
vn -5.057749 2.094987 -2.394024
v -0.041060 0.017008 0.053943
vn 3.871036 -3.871036 -2.394028
v 0.031426 -0.031426 0.053943
vn -3.871045 3.871045 -2.394016
v -0.031426 0.031426 0.053943
vn 2.094990 -5.057753 -2.394024
v 0.017008 -0.041060 0.053943
vn -0.000000 -5.474478 -2.394018
v -0.000000 -0.044443 0.053943
vn 2.094992 5.057756 -2.394024
v 0.017008 0.041060 0.053943
vn -2.094991 -5.057754 -2.394022
v -0.017008 -0.041060 0.053943
vn 3.871038 3.871037 -2.394028
v 0.031426 0.031426 0.053943
vn -3.596957 3.596957 -2.006275
v -0.031820 0.031820 0.054500
vn -4.699645 1.946656 -2.006284
v -0.041575 0.017221 0.054500
vn -4.645419 1.924195 2.055248
v -0.041575 0.017221 0.060000
vn -3.555449 3.555449 2.055250
v -0.031820 0.031820 0.060000
vn -0.000000 -5.086862 -2.006278
v -0.000000 -0.045000 0.054500
vn -1.946656 -4.699644 -2.006280
v -0.017221 -0.041575 0.054500
vn 1.946656 4.699645 -2.006283
v 0.017221 0.041575 0.054500
vn 3.596951 3.596950 -2.006286
v 0.031820 0.031820 0.054500
vn -3.596958 -3.596958 -2.006279
v -0.031820 -0.031820 0.054500
vn 4.699644 1.946656 -2.006281
v 0.041575 0.017221 0.054500
vn -4.699644 -1.946657 -2.006282
v -0.041575 -0.017221 0.054500
vn 5.086863 0.000000 -2.006279
v 0.045000 -0.000000 0.054500
vn -5.086863 0.000000 -2.006279
v -0.045000 0.000000 0.054500
vn 4.699646 -1.946657 -2.006283
v 0.041575 -0.017221 0.054500
vn 3.596950 -3.596951 -2.006286
v 0.031820 -0.031820 0.054500
vn 1.946656 -4.699644 -2.006283
v 0.017221 -0.041575 0.054500
vn 5.028161 0.000000 2.055251
v 0.045000 -0.000000 0.060000
vn 4.645418 1.924195 2.055248
v 0.041575 0.017221 0.060000
vn 2.156569 0.893280 5.213006
v 0.040599 0.016817 0.061000
vn 2.334250 -0.000000 5.213010
v 0.043945 -0.000000 0.061000
vn 3.555447 -3.555448 2.055250
v 0.031820 -0.031820 0.060000
vn 1.924195 -4.645419 2.055248
v 0.017221 -0.041575 0.060000
vn -1.924195 4.645418 2.055248
v -0.017221 0.041575 0.060000
vn -0.000000 -5.028162 2.055252
v -0.000000 -0.045000 0.060000
vn 0.000000 5.028162 2.055252
v 0.000000 0.045000 0.060000
vn 1.924195 4.645418 2.055248
v 0.017221 0.041575 0.060000
vn -1.924195 -4.645418 2.055248
v -0.017221 -0.041575 0.060000
vn 3.555448 3.555447 2.055250
v 0.031820 0.031820 0.060000
vn -3.555449 -3.555449 2.055250
v -0.031820 -0.031820 0.060000
vn -4.645419 -1.924197 2.055250
v -0.041575 -0.017221 0.060000
vn -5.028162 0.000000 2.055252
v -0.045000 0.000000 0.060000
vn 4.645419 -1.924195 2.055248
v 0.041575 -0.017221 0.060000
vn 1.650565 1.650565 5.213009
v 0.031073 0.031073 0.061000
vn 0.893280 2.156570 5.213007
v 0.016817 0.040599 0.061000
vn 0.000000 2.334250 5.213010
v 0.000000 0.043945 0.061000
vn -0.893280 2.156570 5.213006
v -0.016817 0.040599 0.061000
vn -1.650566 1.650566 5.213008
v -0.031073 0.031073 0.061000
vn -2.156570 0.893280 5.213005
v -0.040599 0.016817 0.061000
vn -2.334251 0.000000 5.213011
v -0.043945 0.000000 0.061000
vn -2.156570 -0.893281 5.213006
v -0.040599 -0.016817 0.061000
vn -1.650565 -1.650566 5.213007
v -0.031073 -0.031073 0.061000
vn -0.893281 -2.156571 5.213006
v -0.016817 -0.040599 0.061000
vn -0.000000 -2.334250 5.213010
v -0.000000 -0.043945 0.061000
vn 0.893281 -2.156571 5.213006
v 0.016817 -0.040599 0.061000
vn 1.650565 -1.650565 5.213008
v 0.031073 -0.031073 0.061000
vn 2.156570 -0.893280 5.213005
v 0.040599 -0.016817 0.061000
# 112 vertices, 0 vertices normals

f 1//1 2//2 3//3
f 1//1 3//3 4//4
f 4//4 3//3 5//5
f 4//4 5//5 6//6
f 6//6 5//5 7//7
f 6//6 7//7 8//8
f 8//8 7//7 9//9
f 8//8 9//9 10//10
f 10//10 9//9 11//11
f 10//10 11//11 12//12
f 12//12 11//11 13//13
f 12//12 13//13 14//14
f 14//14 13//13 15//15
f 14//14 15//15 16//16
f 16//16 15//15 17//17
f 16//16 17//17 18//18
f 18//18 17//17 19//19
f 18//18 19//19 20//20
f 20//20 19//19 21//21
f 20//20 21//21 22//22
f 22//22 21//21 23//23
f 22//22 23//23 24//24
f 24//24 23//23 25//25
f 24//24 25//25 26//26
f 26//26 25//25 27//27
f 26//26 27//27 28//28
f 28//28 27//27 29//29
f 28//28 29//29 30//30
f 13//13 11//11 31//31
f 13//13 31//31 32//32
f 30//30 29//29 33//33
f 30//30 33//33 34//34
f 34//34 33//33 2//2
f 34//34 2//2 1//1
f 34//34 1//1 4//4
f 4//4 6//6 8//8
f 8//8 10//10 12//12
f 12//12 14//14 16//16
f 16//16 18//18 20//20
f 20//20 22//22 24//24
f 24//24 26//26 28//28
f 28//28 30//30 34//34
f 34//34 4//4 8//8
f 8//8 12//12 16//16
f 16//16 20//20 24//24
f 24//24 28//28 34//34
f 34//34 8//8 16//16
f 16//16 24//24 34//34
f 35//35 36//36 37//37
f 35//35 37//37 38//38
f 23//23 21//21 36//36
f 23//23 36//36 35//35
f 2//2 33//33 39//39
f 2//2 39//39 40//40
f 9//9 7//7 41//41
f 9//9 41//41 42//42
f 19//19 17//17 43//43
f 19//19 43//43 44//44
f 29//29 27//27 45//45
f 29//29 45//45 46//46
f 5//5 3//3 47//47
f 5//5 47//47 48//48
f 15//15 13//13 32//32
f 15//15 32//32 49//49
f 25//25 23//23 35//35
f 25//25 35//35 50//50
f 11//11 9//9 42//42
f 11//11 42//42 31//31
f 21//21 19//19 44//44
f 21//21 44//44 36//36
f 33//33 29//29 46//46
f 33//33 46//46 39//39
f 7//7 5//5 48//48
f 7//7 48//48 41//41
f 17//17 15//15 49//49
f 17//17 49//49 43//43
f 3//3 2//2 40//40
f 3//3 40//40 47//47
f 27//27 25//25 50//50
f 27//27 50//50 45//45
f 51//51 52//52 53//53
f 51//51 53//53 54//54
f 42//42 41//41 55//55
f 42//42 55//55 56//56
f 50//50 35//35 38//38
f 50//50 38//38 57//57
f 31//31 42//42 56//56
f 31//31 56//56 58//58
f 45//45 50//50 57//57
f 45//45 57//57 59//59
f 32//32 31//31 58//58
f 32//32 58//58 60//60
f 46//46 45//45 59//59
f 46//46 59//59 61//61
f 49//49 32//32 60//60
f 49//49 60//60 62//62
f 39//39 46//46 61//61
f 39//39 61//61 52//52
f 43//43 49//49 62//62
f 43//43 62//62 63//63
f 47//47 40//40 51//51
f 47//47 51//51 64//64
f 40//40 39//39 52//52
f 40//40 52//52 51//51
f 44//44 43//43 63//63
f 44//44 63//63 65//65
f 48//48 47//47 64//64
f 48//48 64//64 66//66
f 36//36 44//44 65//65
f 36//36 65//65 37//37
f 41//41 48//48 66//66
f 41//41 66//66 55//55
f 67//67 68//68 69//69
f 67//67 69//69 70//70
f 65//65 63//63 71//71
f 65//65 71//71 72//72
f 66//66 64//64 73//73
f 66//66 73//73 74//74
f 37//37 65//65 72//72
f 37//37 72//72 75//75
f 55//55 66//66 74//74
f 55//55 74//74 76//76
f 38//38 37//37 75//75
f 38//38 75//75 77//77
f 56//56 55//55 76//76
f 56//56 76//76 78//78
f 57//57 38//38 77//77
f 57//57 77//77 79//79
f 58//58 56//56 78//78
f 58//58 78//78 80//80
f 59//59 57//57 79//79
f 59//59 79//79 68//68
f 60//60 58//58 80//80
f 60//60 80//80 81//81
f 61//61 59//59 68//68
f 61//61 68//68 67//67
f 62//62 60//60 81//81
f 62//62 81//81 82//82
f 52//52 61//61 67//67
f 52//52 67//67 53//53
f 63//63 62//62 82//82
f 63//63 82//82 71//71
f 64//64 51//51 54//54
f 64//64 54//54 73//73
f 83//83 84//84 85//85
f 83//83 85//85 86//86
f 82//82 81//81 87//87
f 82//82 87//87 88//88
f 53//53 67//67 70//70
f 53//53 70//70 89//89
f 71//71 82//82 88//88
f 71//71 88//88 90//90
f 73//73 54//54 91//91
f 73//73 91//91 92//92
f 54//54 53//53 89//89
f 54//54 89//89 91//91
f 72//72 71//71 90//90
f 72//72 90//90 93//93
f 74//74 73//73 92//92
f 74//74 92//92 94//94
f 75//75 72//72 93//93
f 75//75 93//93 95//95
f 76//76 74//74 94//94
f 76//76 94//94 84//84
f 77//77 75//75 95//95
f 77//77 95//95 96//96
f 78//78 76//76 84//84
f 78//78 84//84 83//83
f 79//79 77//77 96//96
f 79//79 96//96 97//97
f 80//80 78//78 83//83
f 80//80 83//83 98//98
f 68//68 79//79 97//97
f 68//68 97//97 69//69
f 81//81 80//80 98//98
f 81//81 98//98 87//87
f 99//99 100//100 101//101
f 101//101 102//102 103//103
f 103//103 104//104 105//105
f 105//105 106//106 107//107
f 107//107 108//108 109//109
f 109//109 110//110 111//111
f 111//111 112//112 86//86
f 86//86 85//85 99//99
f 99//99 101//101 103//103
f 103//103 105//105 107//107
f 107//107 109//109 111//111
f 111//111 86//86 99//99
f 99//99 103//103 107//107
f 107//107 111//111 99//99
f 97//97 96//96 106//106
f 97//97 106//106 105//105
f 98//98 83//83 86//86
f 98//98 86//86 112//112
f 69//69 97//97 105//105
f 69//69 105//105 104//104
f 87//87 98//98 112//112
f 87//87 112//112 111//111
f 70//70 69//69 104//104
f 70//70 104//104 103//103
f 88//88 87//87 111//111
f 88//88 111//111 110//110
f 89//89 70//70 103//103
f 89//89 103//103 102//102
f 90//90 88//88 110//110
f 90//90 110//110 109//109
f 92//92 91//91 101//101
f 92//92 101//101 100//100
f 91//91 89//89 102//102
f 91//91 102//102 101//101
f 93//93 90//90 109//109
f 93//93 109//109 108//108
f 94//94 92//92 100//100
f 94//94 100//100 99//99
f 95//95 93//93 108//108
f 95//95 108//108 107//107
f 84//84 94//94 99//99
f 84//84 99//99 85//85
f 96//96 95//95 107//107
f 96//96 107//107 106//106
# 220 faces, 0 coords texture

# End of File
