####
#
# OBJ File Generated by Meshlab
#
####
# Object Indy7_5.obj
#
# Vertices: 144
# Faces: 284
#
####
vn 0.000000 3.081228 -2.748894
v 0.000000 0.044941 0.000500
vn 0.000001 6.087542 0.395789
v 0.000000 0.044941 0.039105
vn 2.315408 5.637709 0.367446
v 0.017198 0.041520 0.039105
vn 1.179135 2.846683 -2.748893
v 0.017198 0.041520 0.000500
vn 4.298761 4.347170 0.285477
v 0.031778 0.031778 0.039105
vn 2.178757 2.178757 -2.748893
v 0.031778 0.031778 0.000500
vn 5.653692 2.391061 0.159553
v 0.041520 0.017198 0.039105
vn 2.846684 1.179135 -2.748893
v 0.041520 0.017198 0.000500
vn 6.161440 0.050072 0.006592
v 0.044941 -0.000000 0.039105
vn 3.081228 0.000000 -2.748894
v 0.044941 -0.000000 0.000500
vn 5.725067 -2.320626 -0.150280
v 0.041520 -0.017198 0.039105
vn 2.846683 -1.179135 -2.748893
v 0.041520 -0.017198 0.000500
vn 4.398944 -4.347697 -0.285547
v 0.031778 -0.031778 0.039105
vn 2.178757 -2.178757 -2.748893
v 0.031778 -0.031778 0.000500
vn 2.385723 -5.708143 -0.376737
v 0.017198 -0.041520 0.039105
vn 1.179135 -2.846684 -2.748893
v 0.017198 -0.041520 0.000500
vn -0.009741 -6.164363 -0.006523
v -0.000000 -0.044941 0.039105
vn -0.000000 -3.081228 -2.748893
v -0.000000 -0.044941 0.000500
vn -2.385789 -5.708482 -0.376739
v -0.017198 -0.041520 0.039105
vn -1.179135 -2.846683 -2.748893
v -0.017198 -0.041520 0.000500
vn -4.398944 -4.347697 -0.285549
v -0.031778 -0.031778 0.039105
vn -2.178757 -2.178757 -2.748894
v -0.031778 -0.031778 0.000500
vn -5.725066 -2.320627 -0.150280
v -0.041520 -0.017198 0.039105
vn -2.846683 -1.179135 -2.748893
v -0.041520 -0.017198 0.000500
vn -6.161440 0.050072 0.006592
v -0.044941 0.000000 0.039105
vn -3.081228 0.000000 -2.748893
v -0.044941 0.000000 0.000500
vn -5.653693 2.391062 0.159553
v -0.041520 0.017198 0.039105
vn -2.846684 1.179135 -2.748894
v -0.041520 0.017198 0.000500
vn -4.298762 4.347170 0.285477
v -0.031778 0.031778 0.039105
vn -2.178757 2.178757 -2.748893
v -0.031778 0.031778 0.000500
vn 4.240008 4.189052 1.122453
v 0.031778 0.029164 0.058961
vn 5.614018 2.341262 0.627339
v 0.041520 0.015081 0.055188
vn -2.315408 5.637709 0.367445
v -0.017198 0.041520 0.039105
vn -1.179135 2.846683 -2.748893
v -0.017198 0.041520 0.000500
vn -6.160424 0.096731 0.025919
v -0.044941 -0.001531 0.050737
vn -5.756767 -2.205192 -0.590880
v -0.041520 -0.018144 0.046285
vn -5.756765 -1.977121 -1.141492
v -0.041520 -0.020915 0.052977
vn -6.160424 0.086726 0.050071
v -0.044941 -0.006021 0.061576
vn 2.413265 -5.528389 -1.481233
v 0.017198 -0.041637 0.039990
vn 0.080164 -3.228517 -3.515655
v -0.000000 -0.044941 0.039105
vn 0.000001 5.807753 1.556183
v 0.000000 0.041878 0.062368
vn 2.272547 5.391847 1.444741
v 0.017198 0.038574 0.061483
vn -5.614018 2.341262 0.627340
v -0.041520 0.015081 0.055188
vn 5.756766 -2.205191 -0.590880
v 0.041520 -0.018144 0.046285
vn 4.440374 -4.190068 -1.122730
v 0.031778 -0.032227 0.042512
vn -4.440374 -4.190069 -1.122732
v -0.031778 -0.032227 0.042512
vn -2.272546 5.391847 1.444741
v -0.017198 0.038574 0.061483
vn 6.160425 0.096730 0.025919
v 0.044941 -0.001531 0.050737
vn -2.413188 -5.527910 -1.481578
v -0.017198 -0.041637 0.039990
vn -4.240009 4.189052 1.122453
v -0.031778 0.029164 0.058961
vn -4.440372 -3.756712 -2.168942
v -0.031778 -0.033542 0.045687
vn -2.413172 -4.956182 -2.861483
v -0.017198 -0.041978 0.040816
vn -2.413172 -4.046692 -4.046741
v -0.017198 -0.042522 0.041524
vn -4.440374 -3.067342 -3.067344
v -0.031778 -0.035634 0.048413
vn 6.160424 0.086726 0.050071
v 0.044941 -0.006021 0.061576
vn 5.756765 -1.977121 -1.141492
v 0.041520 -0.020915 0.052977
vn -5.614018 2.099118 1.211927
v -0.041520 0.008873 0.070175
vn 4.440374 -3.756714 -2.168944
v 0.031778 -0.033542 0.045687
vn -4.240009 3.755801 2.168413
v -0.031778 0.021500 0.077465
vn 2.413172 -4.956182 -2.861483
v 0.017198 -0.041978 0.040816
vn -2.272547 4.834198 2.791025
v -0.017198 0.029937 0.082336
vn 0.131681 -0.085815 -6.247500
v -0.000000 -0.044941 0.039105
vn 0.000001 5.207088 3.006315
v 0.000000 0.032899 0.084046
vn 2.272547 4.834198 2.791026
v 0.017198 0.029937 0.082336
vn 4.240008 3.755802 2.168413
v 0.031778 0.021500 0.077465
vn 5.614017 2.099118 1.211926
v 0.041520 0.008873 0.070175
vn -2.272546 3.947106 3.947105
v -0.017198 0.016196 0.100242
vn -4.240010 3.066600 3.066598
v -0.031778 0.009308 0.093354
vn -4.240009 2.168413 3.755801
v -0.031778 -0.006581 0.105546
vn -2.272545 2.791024 4.834198
v -0.017198 -0.001710 0.113983
vn 4.240006 3.066600 3.066600
v 0.031778 0.009308 0.093354
vn 5.614018 1.713923 1.713922
v 0.041520 -0.001002 0.083044
vn -5.756766 -1.614312 -1.614312
v -0.041520 -0.025324 0.058722
vn 6.160424 0.070812 0.070811
v 0.044941 -0.013163 0.070883
vn -6.160424 0.070812 0.070812
v -0.044941 -0.013163 0.070883
vn 5.756766 -1.614312 -1.614311
v 0.041520 -0.025324 0.058722
vn -5.614018 1.713923 1.713923
v -0.041520 -0.001002 0.083044
vn 4.440375 -3.067343 -3.067345
v 0.031778 -0.035633 0.048413
vn 2.413173 -4.046691 -4.046741
v 0.017198 -0.042522 0.041524
vn 0.108218 -0.070066 -6.219801
v -0.000000 -0.044941 0.039105
vn 0.000002 4.251570 4.251571
v 0.000000 0.018615 0.102661
vn 2.272546 3.947107 3.947107
v 0.017198 0.016196 0.100242
vn 5.756766 -1.141490 -1.977121
v 0.041520 -0.031070 0.063131
vn 6.160425 0.050071 0.086726
v 0.044941 -0.022471 0.078025
vn 6.160425 0.025919 0.096729
v 0.044941 -0.033309 0.082515
vn 5.756766 -0.590878 -2.205191
v 0.041520 -0.037761 0.065903
vn 2.413174 -2.861420 -4.956218
v 0.017198 -0.043231 0.042068
vn 0.080880 -0.049544 -6.193667
v -0.000000 -0.044941 0.039105
vn 0.000002 3.006314 5.207089
v 0.000000 -0.000000 0.116945
vn 2.272544 2.791026 4.834198
v 0.017198 -0.001710 0.113983
vn -2.413229 -2.861421 -4.956559
v -0.017198 -0.043231 0.042068
vn 4.240006 2.168413 3.755803
v 0.031778 -0.006581 0.105546
vn -4.440375 -2.168937 -3.756715
v -0.031778 -0.038360 0.050505
vn 5.614018 1.211926 2.099118
v 0.041520 -0.013871 0.092919
vn -5.756765 -1.141490 -1.977121
v -0.041520 -0.031070 0.063131
vn -6.160424 0.050071 0.086726
v -0.044941 -0.022471 0.078025
vn -5.614017 1.211927 2.099118
v -0.041520 -0.013871 0.092919
vn 4.440375 -2.168938 -3.756715
v 0.031778 -0.038360 0.050505
vn -4.440374 -1.122724 -4.190068
v -0.031778 -0.041534 0.051819
vn -2.413170 -1.481160 -5.527929
v -0.017198 -0.044056 0.042409
vn -2.385718 -0.376702 -5.708145
v -0.017198 -0.044941 0.042526
vn -4.398946 -0.285547 -4.347696
v -0.031778 -0.044941 0.052268
vn -6.160424 0.025919 0.096730
v -0.044941 -0.033309 0.082515
vn -5.614017 0.627339 2.341262
v -0.041520 -0.028858 0.099127
vn 4.440374 -1.122727 -4.190071
v 0.031778 -0.041534 0.051819
vn -4.240008 1.122452 4.189053
v -0.031778 -0.025085 0.113210
vn 2.413172 -1.481161 -5.527927
v 0.017198 -0.044056 0.042409
vn -2.272545 1.444740 5.391847
v -0.017198 -0.022563 0.122620
vn 0.035305 -0.025646 -6.172708
v -0.000000 -0.044941 0.039105
vn 0.000001 1.556183 5.807754
v 0.000000 -0.021678 0.125925
vn 2.272545 1.444742 5.391848
v 0.017198 -0.022563 0.122620
vn 4.240007 1.122453 4.189054
v 0.031778 -0.025085 0.113210
vn 5.614018 0.627339 2.341262
v 0.041520 -0.028858 0.099127
vn -5.756765 -0.590878 -2.205193
v -0.041520 -0.037761 0.065903
vn -2.315408 0.367446 5.637708
v -0.017198 -0.044941 0.125566
vn -4.298761 0.285477 4.347171
v -0.031778 -0.044941 0.115824
vn -2.178758 -2.748893 2.178758
v -0.031778 -0.114000 0.115824
vn -1.179130 -2.748893 2.846670
v -0.017198 -0.114000 0.125566
vn 4.298760 0.285478 4.347171
v 0.031778 -0.044941 0.115824
vn 5.653692 0.159554 2.391062
v 0.041520 -0.044941 0.101244
vn -5.725066 -0.150280 -2.320626
v -0.041520 -0.044941 0.066848
vn 6.161440 0.006592 0.050071
v 0.044941 -0.044941 0.084046
vn -6.161440 0.006592 0.050071
v -0.044941 -0.044941 0.084046
vn 5.725066 -0.150279 -2.320626
v 0.041520 -0.044941 0.066848
vn -5.653691 0.159553 2.391062
v -0.041520 -0.044941 0.101244
vn 4.398946 -0.285550 -4.347697
v 0.031778 -0.044941 0.052268
vn 2.385787 -0.376700 -5.708481
v 0.017198 -0.044941 0.042526
vn 0.003564 -0.006523 -6.163160
v -0.000000 -0.044941 0.039105
vn 0.000000 0.395790 6.087542
v 0.000000 -0.044941 0.128987
vn 2.315407 0.367446 5.637709
v 0.017198 -0.044941 0.125566
vn 2.178756 -2.748893 2.178758
v 0.031778 -0.114000 0.115824
vn 1.179137 -2.748895 2.846690
v 0.017198 -0.114000 0.125566
vn 0.000001 -2.748893 3.081229
v -0.000000 -0.114000 0.128987
vn -2.846671 -2.748893 1.179130
v -0.041520 -0.114000 0.101244
vn -3.081230 -2.748894 0.000001
v -0.044941 -0.114000 0.084046
vn -2.846677 -2.748893 -1.179132
v -0.041520 -0.114000 0.066848
vn -2.178758 -2.748894 -2.178756
v -0.031778 -0.114000 0.052268
vn -1.179132 -2.748893 -2.846677
v -0.017198 -0.114000 0.042526
vn -0.000000 -2.748896 -3.081228
v -0.000000 -0.114000 0.039105
vn 1.179132 -2.748892 -2.846677
v 0.017198 -0.114000 0.042526
vn 2.178758 -2.748894 -2.178756
v 0.031778 -0.114000 0.052268
vn 2.846684 -2.748893 -1.179135
v 0.041520 -0.114000 0.066848
vn 3.081228 -2.748894 -0.000000
v 0.044941 -0.114000 0.084046
vn 2.846684 -2.748893 1.179135
v 0.041520 -0.114000 0.101244
# 144 vertices, 0 vertices normals

f 1//1 2//2 3//3
f 1//1 3//3 4//4
f 4//4 3//3 5//5
f 4//4 5//5 6//6
f 6//6 5//5 7//7
f 6//6 7//7 8//8
f 8//8 7//7 9//9
f 8//8 9//9 10//10
f 10//10 9//9 11//11
f 10//10 11//11 12//12
f 12//12 11//11 13//13
f 12//12 13//13 14//14
f 14//14 13//13 15//15
f 14//14 15//15 16//16
f 16//16 15//15 17//17
f 16//16 17//17 18//18
f 18//18 17//17 19//19
f 18//18 19//19 20//20
f 20//20 19//19 21//21
f 20//20 21//21 22//22
f 22//22 21//21 23//23
f 22//22 23//23 24//24
f 24//24 23//23 25//25
f 24//24 25//25 26//26
f 26//26 25//25 27//27
f 26//26 27//27 28//28
f 28//28 27//27 29//29
f 28//28 29//29 30//30
f 7//7 5//5 31//31
f 7//7 31//31 32//32
f 30//30 29//29 33//33
f 30//30 33//33 34//34
f 34//34 33//33 2//2
f 34//34 2//2 1//1
f 34//34 1//1 4//4
f 4//4 6//6 8//8
f 8//8 10//10 12//12
f 12//12 14//14 16//16
f 16//16 18//18 20//20
f 20//20 22//22 24//24
f 24//24 26//26 28//28
f 28//28 30//30 34//34
f 34//34 4//4 8//8
f 8//8 12//12 16//16
f 16//16 20//20 24//24
f 24//24 28//28 34//34
f 34//34 8//8 16//16
f 16//16 24//24 34//34
f 35//35 36//36 37//37
f 35//35 37//37 38//38
f 17//17 15//15 39//39
f 17//17 39//39 40//40
f 3//3 2//2 41//41
f 3//3 41//41 42//42
f 27//27 25//25 35//35
f 27//27 35//35 43//43
f 13//13 11//11 44//44
f 13//13 44//44 45//45
f 23//23 21//21 46//46
f 23//23 46//46 36//36
f 2//2 33//33 47//47
f 2//2 47//47 41//41
f 9//9 7//7 32//32
f 9//9 32//32 48//48
f 19//19 17//17 40//40
f 19//19 40//40 49//49
f 29//29 27//27 43//43
f 29//29 43//43 50//50
f 5//5 3//3 42//42
f 5//5 42//42 31//31
f 15//15 13//13 45//45
f 15//15 45//45 39//39
f 25//25 23//23 36//36
f 25//25 36//36 35//35
f 11//11 9//9 48//48
f 11//11 48//48 44//44
f 21//21 19//19 49//49
f 21//21 49//49 46//46
f 33//33 29//29 50//50
f 33//33 50//50 47//47
f 51//51 52//52 53//53
f 51//51 53//53 54//54
f 44//44 48//48 55//55
f 44//44 55//55 56//56
f 43//43 35//35 38//38
f 43//43 38//38 57//57
f 45//45 44//44 56//56
f 45//45 56//56 58//58
f 50//50 43//43 57//57
f 50//50 57//57 59//59
f 39//39 45//45 58//58
f 39//39 58//58 60//60
f 47//47 50//50 59//59
f 47//47 59//59 61//61
f 40//40 39//39 60//60
f 40//40 60//60 62//62
f 42//42 41//41 63//63
f 42//42 63//63 64//64
f 41//41 47//47 61//61
f 41//41 61//61 63//63
f 49//49 40//40 62//62
f 49//49 62//62 52//52
f 31//31 42//42 64//64
f 31//31 64//64 65//65
f 46//46 49//49 52//52
f 46//46 52//52 51//51
f 32//32 31//31 65//65
f 32//32 65//65 66//66
f 36//36 46//46 51//51
f 36//36 51//51 37//37
f 48//48 32//32 66//66
f 48//48 66//66 55//55
f 67//67 68//68 69//69
f 67//67 69//69 70//70
f 66//66 65//65 71//71
f 66//66 71//71 72//72
f 37//37 51//51 54//54
f 37//37 54//54 73//73
f 55//55 66//66 72//72
f 55//55 72//72 74//74
f 38//38 37//37 73//73
f 38//38 73//73 75//75
f 56//56 55//55 74//74
f 56//56 74//74 76//76
f 57//57 38//38 75//75
f 57//57 75//75 77//77
f 58//58 56//56 76//76
f 58//58 76//76 78//78
f 59//59 57//57 77//77
f 59//59 77//77 68//68
f 60//60 58//58 78//78
f 60//60 78//78 79//79
f 61//61 59//59 68//68
f 61//61 68//68 67//67
f 62//62 60//60 79//79
f 62//62 79//79 80//80
f 64//64 63//63 81//81
f 64//64 81//81 82//82
f 63//63 61//61 67//67
f 63//63 67//67 81//81
f 52//52 62//62 80//80
f 52//52 80//80 53//53
f 65//65 64//64 82//82
f 65//65 82//82 71//71
f 83//83 84//84 85//85
f 83//83 85//85 86//86
f 80//80 79//79 87//87
f 80//80 87//87 88//88
f 82//82 81//81 89//89
f 82//82 89//89 90//90
f 81//81 67//67 70//70
f 81//81 70//70 89//89
f 53//53 80//80 88//88
f 53//53 88//88 91//91
f 71//71 82//82 90//90
f 71//71 90//90 92//92
f 54//54 53//53 91//91
f 54//54 91//91 93//93
f 72//72 71//71 92//92
f 72//72 92//92 94//94
f 73//73 54//54 93//93
f 73//73 93//93 95//95
f 74//74 72//72 94//94
f 74//74 94//94 84//84
f 75//75 73//73 95//95
f 75//75 95//95 96//96
f 76//76 74//74 84//84
f 76//76 84//84 83//83
f 77//77 75//75 96//96
f 77//77 96//96 97//97
f 78//78 76//76 83//83
f 78//78 83//83 98//98
f 68//68 77//77 97//97
f 68//68 97//97 69//69
f 79//79 78//78 98//98
f 79//79 98//98 87//87
f 99//99 100//100 101//101
f 99//99 101//101 102//102
f 97//97 96//96 103//103
f 97//97 103//103 104//104
f 98//98 83//83 86//86
f 98//98 86//86 105//105
f 69//69 97//97 104//104
f 69//69 104//104 106//106
f 87//87 98//98 105//105
f 87//87 105//105 107//107
f 70//70 69//69 106//106
f 70//70 106//106 108//108
f 88//88 87//87 107//107
f 88//88 107//107 109//109
f 90//90 89//89 110//110
f 90//90 110//110 111//111
f 89//89 70//70 108//108
f 89//89 108//108 110//110
f 91//91 88//88 109//109
f 91//91 109//109 100//100
f 92//92 90//90 111//111
f 92//92 111//111 112//112
f 93//93 91//91 100//100
f 93//93 100//100 99//99
f 94//94 92//92 112//112
f 94//94 112//112 113//113
f 95//95 93//93 99//99
f 95//95 99//99 114//114
f 84//84 94//94 113//113
f 84//84 113//113 85//85
f 96//96 95//95 114//114
f 96//96 114//114 103//103
f 115//115 116//116 117//117
f 115//115 117//117 118//118
f 113//113 112//112 119//119
f 113//113 119//119 120//120
f 114//114 99//99 102//102
f 114//114 102//102 121//121
f 85//85 113//113 120//120
f 85//85 120//120 122//122
f 103//103 114//114 121//121
f 103//103 121//121 123//123
f 86//86 85//85 122//122
f 86//86 122//122 124//124
f 104//104 103//103 123//123
f 104//104 123//123 125//125
f 105//105 86//86 124//124
f 105//105 124//124 126//126
f 106//106 104//104 125//125
f 106//106 125//125 116//116
f 107//107 105//105 126//126
f 107//107 126//126 127//127
f 108//108 106//106 116//116
f 108//108 116//116 115//115
f 109//109 107//107 127//127
f 109//109 127//127 128//128
f 111//111 110//110 129//129
f 111//111 129//129 130//130
f 110//110 108//108 115//115
f 110//110 115//115 129//129
f 100//100 109//109 128//128
f 100//100 128//128 101//101
f 112//112 111//111 130//130
f 112//112 130//130 119//119
f 131//131 132//132 133//133
f 133//133 118//118 117//117
f 117//117 134//134 135//135
f 135//135 136//136 137//137
f 137//137 138//138 139//139
f 139//139 140//140 141//141
f 141//141 142//142 143//143
f 143//143 144//144 131//131
f 131//131 133//133 117//117
f 117//117 135//135 137//137
f 137//137 139//139 141//141
f 141//141 143//143 131//131
f 131//131 117//117 137//137
f 137//137 141//141 131//131
f 128//128 127//127 140//140
f 128//128 140//140 139//139
f 130//130 129//129 133//133
f 130//130 133//133 132//132
f 129//129 115//115 118//118
f 129//129 118//118 133//133
f 101//101 128//128 139//139
f 101//101 139//139 138//138
f 119//119 130//130 132//132
f 119//119 132//132 131//131
f 102//102 101//101 138//138
f 102//102 138//138 137//137
f 120//120 119//119 131//131
f 120//120 131//131 144//144
f 121//121 102//102 137//137
f 121//121 137//137 136//136
f 122//122 120//120 144//144
f 122//122 144//144 143//143
f 123//123 121//121 136//136
f 123//123 136//136 135//135
f 124//124 122//122 143//143
f 124//124 143//143 142//142
f 125//125 123//123 135//135
f 125//125 135//135 134//134
f 126//126 124//124 142//142
f 126//126 142//142 141//141
f 116//116 125//125 134//134
f 116//116 134//134 117//117
f 127//127 126//126 141//141
f 127//127 141//141 140//140
# 284 faces, 0 coords texture

# End of File
